<svg width="60" height="60" fill="none" xmlns="http://www.w3.org/2000/svg"><g clip-path="url(#clip0_96_347)" fill="#ED6928"><path d="M56.333 28.962c-4.045 0-7.8-2.004-10.044-5.363l-.805-1.205-.805 1.205a12.054 12.054 0 01-10.044 5.363h-3.667v15.48c0 3.743 1.688 7.26 4.51 9.62H15.484V50.2h12.58V32.823H7.742v7.723H1.935V1.931h42.581v17.377h1.936V0H0v41.911l14.116 14.082h24.337L45.483 60l8.178-4.66A12.572 12.572 0 0060 44.442v-15.48h-3.667zM13.548 52.697L3.304 42.477h10.244v10.22zm-3.87-12.15v-5.793h16.451V48.27H15.484v-7.724H9.677zm48.387 3.896a10.64 10.64 0 01-5.364 9.22l-7.217 4.115-7.218-4.115a10.64 10.64 0 01-5.363-9.22v-13.55h1.732a13.99 13.99 0 0010.849-5.134 13.99 13.99 0 0010.85 5.133h1.73v13.55z"/><path d="M54.19 39v5.666c0 2.352-1.222 4.538-3.19 5.705L51.897 52C54.427 50.5 56 47.69 56 44.666V39h-1.81zM6 4v6h35V4H6zm33.056 4H7.944V6h31.112v2zm14.56 25l-13.01 13.193-3.222-3.268L36 44.328 40.607 49 55 34.403 53.616 33zM25 37H12v2h13v-2zm-1 4h-7v2h7v-2zm0 3h-7v2h7v-2zm13-30H6v2h31v-2zm0 3H6v2h31v-2zm0 4H6v2h31v-2zm-13 4H6v2h18v-2zm0 4H6v2h18v-2zm17-15h-2v2h2v-2zm0 3h-2v2h2v-2zm0 4h-2v2h2v-2zm-13 4h-2v2h2v-2zm0 4h-2v2h2v-2z"/></g><defs><clipPath id="clip0_96_347"><path fill="#fff" d="M0 0h60v60H0z"/></clipPath></defs></svg>