<svg width="60" height="60" fill="none" xmlns="http://www.w3.org/2000/svg"><rect width="60" height="60" rx="30" fill="#ED6928"/><path d="M21 30a8.983 8.983 0 003.375 7.027v2.718A11.245 11.245 0 0118.75 30H21zm9-11.25c5.833 0 10.63 4.44 11.194 10.125H38.93a9.001 9.001 0 00-16.372-3.938H25.5v2.25h-6.75v-6.75H21v2.813a11.228 11.228 0 019-4.5zm5.076 19.803H28V36.06h6.974c.49 0 .888-.066 1.195-.199.311-.136.54-.328.684-.575.15-.251.222-.554.217-.907a1.873 1.873 0 00-.217-.927 1.601 1.601 0 00-.665-.671c-.294-.167-.665-.25-1.112-.25h-2.148v10.56h-3.145V30h5.293c1.057 0 1.973.188 2.749.563.775.375 1.374.888 1.796 1.54.422.652.63 1.396.626 2.23.004.896-.21 1.656-.645 2.283-.43.626-1.036 1.106-1.816 1.438-.775.332-1.679.499-2.71.499zm.697.716v2.486H28v-2.486h7.773z" fill="#fff"/></svg>