<svg width="60" height="60" fill="none" xmlns="http://www.w3.org/2000/svg"><rect width="60" height="60" rx="30" fill="#ED6928"/><path d="M22.125 26.625a1.125 1.125 0 011.125 1.125 7.842 7.842 0 014.871 1.688h2.442c1.5 0 2.846.652 3.773 1.687h3.539a5.626 5.626 0 015.08 3.207c-2.66 3.511-6.968 5.793-11.83 5.793-3.139 0-5.794-.678-7.942-1.865a1.123 1.123 0 01-1.058.74H18.75a1.125 1.125 0 01-1.125-1.125V27.75a1.125 1.125 0 011.125-1.125h3.375zM23.251 30l-.001 5.65.05.036c2.02 1.417 4.65 2.189 7.825 2.189 3.38 0 6.524-1.3 8.814-3.521l.15-.15-.135-.112a3.368 3.368 0 00-1.848-.71l-.231-.007H35.5c.081.362.125.738.125 1.125v1.125H25.5v-2.25l7.639-.001-.039-.088a2.814 2.814 0 00-2.353-1.593l-.184-.006h-3.297A5.606 5.606 0 0023.252 30zM21 28.875h-1.125v7.875H21v-7.875zm15.75-6.75a3.375 3.375 0 110 6.75 3.375 3.375 0 010-6.75zm0 2.25a1.125 1.125 0 100 2.25 1.125 1.125 0 000-2.25zm-7.875-5.625a3.375 3.375 0 110 6.75 3.375 3.375 0 010-6.75zm0 2.25a1.125 1.125 0 100 2.25 1.125 1.125 0 000-2.25z" fill="#fff"/></svg>