<svg width="60" height="60" fill="none" xmlns="http://www.w3.org/2000/svg"><path d="M11 6h2v2h-2V6z" fill="#ED6928"/><path d="M34.677 1L13.161 11.31V9.506h-1.87v15.875h2.054l-3.289 5.25c-.275.441-.999.441-1.275 0l-3.287-5.25h2.054V5.773h-1.87v17.743h-3.56l4.678 7.47H1V59h56.129V17.912H59v-5.256L34.677 1zM8.484 32.851h1.87v1.868h-1.87v-1.868zm7.484 24.28H2.87V45.924h3.742v3.735h5.613v-3.735h3.742V57.13zm-7.484-9.339v-1.867h1.87v1.867h-1.87zm7.484-3.735H2.87V32.851h3.742v3.736h5.613V32.85h3.742v11.206zM30.936 57.13H17.839V45.925h3.742v3.735h5.613v-3.735h3.742V57.13zm-7.484-9.338v-1.867h1.87v1.867h-1.87zm13.096-12.14V57.13h-3.742V44.057h-9.354V34.72h3.741v3.735h5.613V34.72h3.742v.934zm-7.484.935v-1.868h1.872v1.868h-1.872zm7.484-3.736H23.452v-9.338h3.741v3.735h5.613v-3.735h3.742v9.338zm-7.484-7.47v-1.867h1.872v1.868h-1.872zm22.452 31.75H38.42v-9.339h3.742v3.736h5.613v-3.736h3.742v9.338zm-7.484-7.471v-1.868h1.871v1.868h-1.87zm7.484-3.735H38.42v-9.338h3.742v3.735h5.613v-3.735h3.742v9.338zm-7.484-7.47v-1.868h1.871v1.867h-1.87zm7.484-3.736H38.42v-9.338h3.742v3.735h5.613v-3.735h3.742v9.338zm-7.484-7.47v-1.867h1.871v1.867h-1.87zM55.258 57.13h-1.87V23.513h-14.97v-1.867H21.581v22.411h-3.742V30.984h-5.796l4.678-7.47h-3.559V17.91H55.26v39.22zm1.871-41.086H13.161V13.38L34.677 3.072 57.13 13.83v2.214z" fill="#ED6928"/></svg>