<svg width="35" height="36" viewBox="0 0 35 36" fill="none" xmlns="http://www.w3.org/2000/svg">
<path d="M25.4157 24.0598L31.0371 29.6799L29.1799 31.5371L23.5598 25.9157C21.4687 27.592 18.8676 28.5038 16.1875 28.5C9.667 28.5 4.375 23.208 4.375 16.6875C4.375 10.167 9.667 4.875 16.1875 4.875C22.708 4.875 28 10.167 28 16.6875C28.0038 19.3676 27.092 21.9687 25.4157 24.0598ZM22.7828 23.0859C24.4485 21.373 25.3788 19.0768 25.375 16.6875C25.375 11.6108 21.2629 7.5 16.1875 7.5C11.1108 7.5 7 11.6108 7 16.6875C7 21.7629 11.1108 25.875 16.1875 25.875C18.5768 25.8788 20.873 24.9485 22.5859 23.2828L22.7828 23.0859Z" fill="black"/>
</svg>
