<svg width="60" height="60" viewBox="0 0 60 60" fill="none" xmlns="http://www.w3.org/2000/svg">
<rect width="60" height="60" rx="30" fill="#ED6928"/>
<path d="M35.625 19.875H40.125C40.4234 19.875 40.7095 19.9935 40.9205 20.2045C41.1315 20.4155 41.25 20.7016 41.25 21V39C41.25 39.2984 41.1315 39.5845 40.9205 39.7955C40.7095 40.0065 40.4234 40.125 40.125 40.125H19.875C19.5766 40.125 19.2905 40.0065 19.0795 39.7955C18.8685 39.5845 18.75 39.2984 18.75 39V21C18.75 20.7016 18.8685 20.4155 19.0795 20.2045C19.2905 19.9935 19.5766 19.875 19.875 19.875H24.375V17.625H26.625V19.875H33.375V17.625H35.625V19.875ZM39 28.875H21V37.875H39V28.875ZM33.375 22.125H26.625V24.375H24.375V22.125H21V26.625H39V22.125H35.625V24.375H33.375V22.125ZM23.25 31.125H25.5V33.375H23.25V31.125ZM28.875 31.125H31.125V33.375H28.875V31.125ZM34.5 31.125H36.75V33.375H34.5V31.125Z" fill="white"/>
</svg>
