<svg width="60" height="60" viewBox="0 0 60 60" fill="none" xmlns="http://www.w3.org/2000/svg">
<g clip-path="url(#clip0_96_347)">
<path d="M56.3332 28.9617C52.2881 28.9617 48.5332 26.9576 46.289 23.599L45.4839 22.3942L44.6787 23.599C42.4345 26.9576 38.6797 28.9617 34.6345 28.9617H30.9677V44.4427C30.9677 48.1846 32.6564 51.7015 35.4784 54.0619H15.4839V50.2003H28.0645V32.8233H7.74193V40.5464H1.93548V1.93078H44.5161V19.3078H46.4516V0H0V41.9115L14.1155 55.9927H38.4532L45.4839 60L53.6613 55.3391C57.571 53.111 60 48.9347 60 44.4427V28.9617H56.3332ZM13.5484 52.6968L3.30387 42.4772H13.5484V52.6968ZM9.67742 40.5464V34.7541H26.129V48.2695H15.4839V40.5464H9.67742ZM58.0645 44.4427C58.0645 48.2444 56.009 51.7768 52.7013 53.6632L45.4839 57.7777L38.2664 53.6632C34.9587 51.7768 32.9032 48.2444 32.9032 44.4427V30.8925H34.6345C38.8732 30.8925 42.8371 28.9955 45.4839 25.7586C48.1306 28.9955 52.0945 30.8925 56.3332 30.8925H58.0645V44.4427Z" fill="#ED6928"/>
<path d="M54.1907 39V44.6656C54.1907 47.0178 52.9676 49.2038 51 50.3705L51.8974 52C54.4277 50.5001 56 47.6898 56 44.6656V39H54.1907Z" fill="#ED6928"/>
<path d="M6 4V10H41V4H6ZM39.0556 8H7.94444V6H39.0556V8Z" fill="#ED6928"/>
<path d="M53.6162 33L40.6066 46.1932L37.3838 42.9249L36 44.3283L40.6066 49L55 34.4034L53.6162 33Z" fill="#ED6928"/>
<path d="M25 37H12V39H25V37Z" fill="#ED6928"/>
<path d="M24 41H17V43H24V41Z" fill="#ED6928"/>
<path d="M24 44H17V46H24V44Z" fill="#ED6928"/>
<path d="M37 14H6V16H37V14Z" fill="#ED6928"/>
<path d="M37 17H6V19H37V17Z" fill="#ED6928"/>
<path d="M37 21H6V23H37V21Z" fill="#ED6928"/>
<path d="M24 25H6V27H24V25Z" fill="#ED6928"/>
<path d="M24 29H6V31H24V29Z" fill="#ED6928"/>
<path d="M41 14H39V16H41V14Z" fill="#ED6928"/>
<path d="M41 17H39V19H41V17Z" fill="#ED6928"/>
<path d="M41 21H39V23H41V21Z" fill="#ED6928"/>
<path d="M28 25H26V27H28V25Z" fill="#ED6928"/>
<path d="M28 29H26V31H28V29Z" fill="#ED6928"/>
</g>
<defs>
<clipPath id="clip0_96_347">
<rect width="60" height="60" fill="white"/>
</clipPath>
</defs>
</svg>
