<svg width="60" height="60" viewBox="0 0 60 60" fill="none" xmlns="http://www.w3.org/2000/svg">
<rect width="60" height="60" rx="30" fill="#ED6928"/>
<path d="M22.125 26.625C22.4234 26.625 22.7095 26.7435 22.9205 26.9545C23.1315 27.1655 23.25 27.4516 23.25 27.75C25.0175 27.7474 26.7341 28.3421 28.1213 29.4375H30.5625C32.0621 29.4375 33.4088 30.09 34.3358 31.125H37.875C38.9384 31.1247 39.9801 31.4259 40.8794 31.9935C41.7786 32.5612 42.4984 33.3722 42.9555 34.3324C40.2949 37.8435 35.9872 40.125 31.125 40.125C27.9862 40.125 25.3313 39.4466 23.1825 38.2597C23.1038 38.4769 22.96 38.6646 22.7708 38.797C22.5815 38.9295 22.356 39.0004 22.125 39H18.75C18.4516 39 18.1655 38.8815 17.9545 38.6705C17.7435 38.4595 17.625 38.1734 17.625 37.875V27.75C17.625 27.4516 17.7435 27.1655 17.9545 26.9545C18.1655 26.7435 18.4516 26.625 18.75 26.625H22.125ZM23.2511 30L23.25 35.6497L23.3006 35.6858C25.32 37.1033 27.9502 37.875 31.125 37.875C34.5045 37.875 37.6489 36.5745 39.9394 34.3538L40.089 34.2041L39.954 34.0916C39.4228 33.6756 38.7788 33.4286 38.1056 33.3829L37.875 33.375H35.5001C35.5811 33.7373 35.625 34.113 35.625 34.5V35.625H25.5V33.375L33.1388 33.3739L33.1005 33.2861C32.8849 32.8356 32.5533 32.4506 32.1397 32.1706C31.726 31.8907 31.2454 31.7259 30.747 31.6931L30.5625 31.6875H27.2662C26.7435 31.1528 26.1191 30.7281 25.4297 30.4383C24.7404 30.1485 24 29.9995 23.2522 30H23.2511ZM21 28.875H19.875V36.75H21V28.875ZM36.75 22.125C37.6451 22.125 38.5036 22.4806 39.1365 23.1135C39.7694 23.7464 40.125 24.6049 40.125 25.5C40.125 26.3951 39.7694 27.2536 39.1365 27.8865C38.5036 28.5194 37.6451 28.875 36.75 28.875C35.8549 28.875 34.9964 28.5194 34.3635 27.8865C33.7306 27.2536 33.375 26.3951 33.375 25.5C33.375 24.6049 33.7306 23.7464 34.3635 23.1135C34.9964 22.4806 35.8549 22.125 36.75 22.125ZM36.75 24.375C36.4516 24.375 36.1655 24.4935 35.9545 24.7045C35.7435 24.9155 35.625 25.2016 35.625 25.5C35.625 25.7984 35.7435 26.0845 35.9545 26.2955C36.1655 26.5065 36.4516 26.625 36.75 26.625C37.0484 26.625 37.3345 26.5065 37.5455 26.2955C37.7565 26.0845 37.875 25.7984 37.875 25.5C37.875 25.2016 37.7565 24.9155 37.5455 24.7045C37.3345 24.4935 37.0484 24.375 36.75 24.375ZM28.875 18.75C29.7701 18.75 30.6286 19.1056 31.2615 19.7385C31.8944 20.3714 32.25 21.2299 32.25 22.125C32.25 23.0201 31.8944 23.8786 31.2615 24.5115C30.6286 25.1444 29.7701 25.5 28.875 25.5C27.9799 25.5 27.1214 25.1444 26.4885 24.5115C25.8556 23.8786 25.5 23.0201 25.5 22.125C25.5 21.2299 25.8556 20.3714 26.4885 19.7385C27.1214 19.1056 27.9799 18.75 28.875 18.75ZM28.875 21C28.5766 21 28.2905 21.1185 28.0795 21.3295C27.8685 21.5405 27.75 21.8266 27.75 22.125C27.75 22.4234 27.8685 22.7095 28.0795 22.9205C28.2905 23.1315 28.5766 23.25 28.875 23.25C29.1734 23.25 29.4595 23.1315 29.6705 22.9205C29.8815 22.7095 30 22.4234 30 22.125C30 21.8266 29.8815 21.5405 29.6705 21.3295C29.4595 21.1185 29.1734 21 28.875 21Z" fill="white"/>
</svg>
