<svg width="61" height="60" viewBox="0 0 61 60" fill="none" xmlns="http://www.w3.org/2000/svg">
<rect x="0.5" width="60" height="60" rx="30" fill="#ED6928"/>
<path d="M24.1798 23.214C25.9727 21.7774 28.2025 20.9963 30.5 21C32.8906 21 35.0878 21.828 36.8203 23.214L38.4549 21.5794L40.0456 23.1701L38.411 24.8048C39.6009 26.2944 40.3461 28.0898 40.5607 29.9842C40.7753 31.8787 40.4506 33.7952 39.6241 35.5133C38.7975 37.2314 37.5027 38.6812 35.8885 39.6959C34.2744 40.7106 32.4066 41.2489 30.5 41.2489C28.5934 41.2489 26.7256 40.7106 25.1115 39.6959C23.4973 38.6812 22.2025 37.2314 21.3759 35.5133C20.5494 33.7952 20.2247 31.8787 20.4394 29.9842C20.654 28.0898 21.3991 26.2944 22.589 24.8048L20.9544 23.1713L22.5451 21.5805L24.1798 23.2151V23.214ZM30.5 39C31.5342 39 32.5582 38.7963 33.5136 38.4006C34.4691 38.0048 35.3372 37.4247 36.0685 36.6935C36.7997 35.9622 37.3798 35.0941 37.7756 34.1386C38.1713 33.1832 38.375 32.1592 38.375 31.125C38.375 30.0908 38.1713 29.0668 37.7756 28.1114C37.3798 27.1559 36.7997 26.2878 36.0685 25.5565C35.3372 24.8253 34.4691 24.2452 33.5136 23.8494C32.5582 23.4537 31.5342 23.25 30.5 23.25C28.4114 23.25 26.4084 24.0797 24.9315 25.5565C23.4547 27.0334 22.625 29.0364 22.625 31.125C22.625 33.2136 23.4547 35.2166 24.9315 36.6935C26.4084 38.1703 28.4114 39 30.5 39ZM31.625 30H35L29.375 37.3125V32.25H26L31.625 24.9319V30ZM26 17.625H35V19.875H26V17.625Z" fill="white"/>
</svg>
