<svg width="60" height="60" viewBox="0 0 60 60" fill="none" xmlns="http://www.w3.org/2000/svg">
<g clip-path="url(#clip0_96_325)">
<path d="M57 54C55.3462 54 54 55.3462 54 57C54 58.6538 55.3462 60 57 60C58.6538 60 60 58.6538 60 57C60 55.3462 58.6538 54 57 54ZM57 58C56.4492 58 56 57.5518 56 57C56 56.4482 56.4492 56 57 56C57.5508 56 58 56.4482 58 57C58 57.5518 57.5508 58 57 58Z" fill="#ED6928"/>
<path d="M6 3C6 1.34619 4.65381 0 3 0C1.34619 0 0 1.34619 0 3C0 4.65381 1.34619 6 3 6C4.65381 6 6 4.65381 6 3ZM2 3C2 2.44922 2.44922 2 3 2C3.55078 2 4 2.44922 4 3C4 3.55078 3.55078 4 3 4C2.44922 4 2 3.55078 2 3Z" fill="#ED6928"/>
<path d="M51.8473 37.7598L49.9482 34.0012C50.351 33.1922 50.6961 32.3749 50.9797 31.5613L55 30.2347V19.346L50.9797 18.0194C50.697 17.2058 50.351 16.3884 49.9482 15.5795L51.8492 11.8172L44.07 4.1183L40.2685 5.99968C39.4511 5.60101 38.6252 5.25856 37.8031 4.97884L36.4627 1H25.4604L24.12 4.97884C23.2979 5.25856 22.472 5.60101 21.6546 5.99968L17.8531 4.1183L10.0739 11.8172L11.9749 15.5795C11.5721 16.3884 11.2261 17.2058 10.9434 18.0194L6.92308 19.346V30.2338L10.9434 31.5599C11.2242 32.3679 11.5655 33.1778 11.9646 33.9803L10.7279 36.2097H5V55.2419H11.7308V52.3871H19.0249L21.9096 55.2419H27.1154V56.1935C27.1154 58.2929 28.8403 60 30.9615 60C33.0827 60 34.8077 58.2929 34.8077 56.1935V55.2419H41.5394C43.1296 55.2419 44.424 53.9609 44.424 52.3871C44.424 51.6534 44.1348 50.9903 43.6742 50.4839C44.1357 49.9774 44.424 49.3143 44.424 48.5806C44.424 47.847 44.1348 47.1839 43.6742 46.6774C44.0414 46.2741 44.2921 45.7704 44.3799 45.2091L51.8473 37.7598ZM13.905 33.5584C13.3759 32.5528 12.9444 31.5306 12.6219 30.5218L12.474 30.0595L8.84615 28.8621V20.7176L12.474 19.5211L12.6209 19.0579C12.9421 18.05 13.374 17.0278 13.9036 16.0223L14.1299 15.5911L12.4134 12.1931L18.232 6.4346L21.6654 8.13338L22.1011 7.90988C23.1181 7.38529 24.15 6.95827 25.1684 6.63998L25.6365 6.49454L26.8473 2.90323H35.0767L36.2857 6.49361L36.7538 6.63905C37.7721 6.95687 38.805 7.38436 39.821 7.90849L40.2567 8.13245L43.6902 6.43367L49.5087 12.1921L47.7922 15.5902L48.018 16.0214C48.5481 17.0278 48.9796 18.0491 49.3012 19.0569L49.4481 19.5202L53.0769 20.7186V28.863L49.4491 30.0595L49.3012 30.5218C48.9786 31.5306 48.5472 32.5528 48.018 33.5584L47.7922 33.9896L49.5106 37.3899L43.8287 43.0564C43.7799 42.9927 43.7277 42.93 43.6742 42.871C44.1357 42.3645 44.424 41.7014 44.424 40.9677C44.424 39.4832 43.269 38.2746 41.8047 38.1394C45.8837 34.904 48.2692 30.0488 48.2692 24.7903C48.2692 15.3457 40.5046 7.66129 30.9615 7.66129C21.4185 7.66129 13.6538 15.3457 13.6538 24.7903C13.6538 29.9852 16.0403 34.8719 20.0912 38.1129H11.8665L14.1421 34.0095L13.905 33.5584ZM42.5009 48.5806C42.5009 49.1057 42.069 49.5323 41.5394 49.5323H33.8462C33.3166 49.5323 32.8846 49.1057 32.8846 48.5806C32.8846 48.0556 33.3166 47.629 33.8462 47.629H41.5394C42.069 47.629 42.5009 48.0556 42.5009 48.5806ZM28.6403 24.7903H33.2828L34.8077 23.2811V19.0806C35.8683 19.0806 36.7308 19.9342 36.7308 20.9839V25.3479L33.448 28.5968H28.4751L25.1923 25.3479V20.9839C25.1923 19.9342 26.0548 19.0806 27.1154 19.0806V23.2811L28.6403 24.7903ZM29.0385 30.5H32.8846V34.3064H29.0385V30.5ZM34.8077 29.9424L38.6538 26.136V20.9839C38.6538 18.8846 36.9289 17.1774 34.8077 17.1774H32.8846V22.4931L32.4865 22.8871H29.4366L29.0385 22.4931V17.1774H27.1154C24.9942 17.1774 23.2692 18.8846 23.2692 20.9839V26.136L27.1154 29.9424V34.3064H24.7942L24.7336 34.3664C21.4509 32.2699 19.4231 28.6758 19.4231 24.7903C19.4231 18.4933 24.5989 13.371 30.9615 13.371C37.3242 13.371 42.5 18.4933 42.5 24.7903C42.5 28.6474 40.553 32.1797 37.2942 34.3064H34.8077V29.9424ZM44.4231 24.7903C44.4231 17.4437 38.3848 11.4677 30.9615 11.4677C23.5383 11.4677 17.5 17.4437 17.5 24.7903C17.5 29.186 19.7095 33.2786 23.3336 35.752L21.949 37.1223C17.9559 34.26 15.5769 29.679 15.5769 24.7903C15.5769 16.3954 22.4791 9.56452 30.9615 9.56452C39.444 9.56452 46.3462 16.3954 46.3462 24.7903C46.3462 29.4931 44.1982 33.8325 40.5309 36.7092C40.421 36.0345 40.0731 35.4444 39.5731 35.0155C42.6376 32.4976 44.4231 28.7901 44.4231 24.7903ZM41.5394 40.0161C42.069 40.0161 42.5009 40.4427 42.5009 40.9677C42.5009 41.4928 42.069 41.9194 41.5394 41.9194H33.8462C33.3166 41.9194 32.8846 41.4928 32.8846 40.9677C32.8846 40.4427 33.3166 40.0161 33.8462 40.0161H41.5394ZM33.8462 45.7258C33.3166 45.7258 32.8846 45.2993 32.8846 44.7742C32.8846 44.2491 33.3166 43.8226 33.8462 43.8226H41.5394C42.069 43.8226 42.5009 44.2491 42.5009 44.7742C42.5009 45.2993 42.069 45.7258 41.5394 45.7258H33.8462ZM9.80769 53.3387H6.92308V38.1129H9.80769V53.3387ZM22.7058 53.3387L19.8212 50.4839H11.7308V40.0161H21.7443L25.5904 36.2097H37.6923C38.2219 36.2097 38.6538 36.6362 38.6538 37.1613C38.6538 37.6863 38.2219 38.1129 37.6923 38.1129H27.6788L23.5509 42.1981L24.9106 43.5438L27.1154 41.3618V53.3387H22.7058ZM30.9615 58.0968C29.9009 58.0968 29.0385 57.2432 29.0385 56.1935V40.0161H31.1385C31.0306 40.3149 30.9615 40.6327 30.9615 40.9677C30.9615 41.7014 31.2507 42.3645 31.7113 42.871C31.2498 43.3774 30.9615 44.0405 30.9615 44.7742C30.9615 45.5079 31.2507 46.1709 31.7113 46.6774C31.2498 47.1839 30.9615 47.847 30.9615 48.5806C30.9615 49.3143 31.2507 49.9774 31.7113 50.4839C31.2498 50.9903 30.9615 51.6534 30.9615 52.3871C30.9615 53.6259 31.7681 54.6727 32.8846 55.0668V56.1935C32.8846 57.2432 32.0221 58.0968 30.9615 58.0968ZM41.5394 53.3387H33.8462C33.3166 53.3387 32.8846 52.9122 32.8846 52.3871C32.8846 51.862 33.3166 51.4355 33.8462 51.4355H41.5394C42.069 51.4355 42.5009 51.862 42.5009 52.3871C42.5009 52.9122 42.069 53.3387 41.5394 53.3387Z" fill="#ED6928"/>
<path d="M2 9H4V11H2V9Z" fill="#ED6928"/>
<path d="M2 13H4V15H2V13Z" fill="#ED6928"/>
<path d="M2 18H4V20H2V18Z" fill="#ED6928"/>
<path d="M56 40H58V42H56V40Z" fill="#ED6928"/>
<path d="M56 45H58V47H56V45Z" fill="#ED6928"/>
<path d="M56 50H58V52H56V50Z" fill="#ED6928"/>
</g>
<defs>
<clipPath id="clip0_96_325">
<rect width="60" height="60" fill="white"/>
</clipPath>
</defs>
</svg>
