<svg width="60" height="60" viewBox="0 0 60 60" fill="none" xmlns="http://www.w3.org/2000/svg">
<g clip-path="url(#clip0_96_277)">
<path d="M28 53C28.5523 53 29 52.5523 29 52C29 51.4477 28.5523 51 28 51C27.4477 51 27 51.4477 27 52C27 52.5523 27.4477 53 28 53Z" fill="#ED6928"/>
<path d="M55 53C55.5523 53 56 52.5523 56 52C56 51.4477 55.5523 51 55 51C54.4477 51 54 51.4477 54 52C54 52.5523 54.4477 53 55 53Z" fill="#ED6928"/>
<path d="M52.2581 44.5161H50.3227V42.5807H56.1291C57.1965 42.5807 58.0645 41.7126 58.0645 40.6452V32.9032C58.0645 31.8357 57.1965 30.9677 56.1291 30.9677H54.1936V29.0323C54.1936 27.9648 53.3256 27.0968 52.2581 27.0968H46.4517C46.4517 26.0293 45.5836 25.1613 44.5162 25.1613V21.2904C44.5162 19.1556 42.7801 17.4194 40.6453 17.4194C38.5105 17.4194 36.7744 19.1556 36.7744 21.2904H30.6708C30.0717 19.6839 29.2879 18.1694 28.3278 16.7865L28.7381 15.5565C28.9326 14.972 29.0324 14.3624 29.0324 13.743C29.0324 11.4784 27.6959 9.42203 25.6269 8.5027L11.613 2.27435V1.93567C11.6129 0.868113 10.7448 0 9.67746 0C4.34127 0 0 4.34127 0 9.67746V11.0652V15.4839C0 16.5513 0.868113 17.4193 1.93547 17.4193V32.9506C0.833255 33.1674 0 34.139 0 35.3042C0 35.847 0.185808 36.3793 0.525495 36.8042L2.5326 39.3135C0.90095 41.4358 0 44.04 0 46.7284C0 49.2824 0.784858 51.7307 2.26839 53.8084L2.6294 54.3126C4.30651 56.6623 7.03169 58.0645 9.91742 58.0645C11.8432 58.0645 13.7526 57.4287 15.2913 56.2722L16.6433 55.258C17.1291 54.8961 17.4194 54.3164 17.4194 53.7096V52.258C17.4194 51.1906 16.5513 50.3225 15.484 50.3225H14.3507L11.613 35.7164V15.7403C14.7263 17.1871 17.435 19.3751 19.5069 22.1371L23.3469 27.2574L21.3282 39.3726C21.304 39.5217 21.2904 39.6726 21.2904 39.8256C21.2904 41.345 22.5262 42.5808 24.0456 42.5808H29.0324V44.5162H27.0969C22.8282 44.5162 19.3549 47.9895 19.3549 52.2582C19.3549 56.5269 22.8282 60.0002 27.0969 60.0002H52.2582C56.5269 60.0002 60.0002 56.5269 60.0002 52.2582C60.0002 47.9895 56.5267 44.5161 52.2581 44.5161ZM30.9677 52.2581C30.9677 53.8588 29.6652 55.1613 28.0645 55.1613C26.4639 55.1613 25.1613 53.8588 25.1613 52.2581C25.1613 50.6575 26.4639 49.3549 28.0645 49.3549C29.6652 49.3548 30.9677 50.6575 30.9677 52.2581ZM50.3227 52.2581H32.9032C32.9032 51.569 32.7542 50.9169 32.4929 50.3227H50.3227V52.2581ZM37.3287 54.1936C37.0423 54.7732 36.4675 55.1613 35.8065 55.1613C35.1455 55.1613 34.5707 54.7732 34.2843 54.1936H37.3287ZM43.1352 54.1936C42.8487 54.7732 42.2739 55.1613 41.6129 55.1613C40.9519 55.1613 40.3771 54.7732 40.0907 54.1936H43.1352ZM48.9417 54.1936C48.6552 54.7732 48.0804 55.1613 47.4194 55.1613C46.7585 55.1613 46.1837 54.7732 45.8972 54.1936H48.9417ZM52.9374 40.6452L56.129 37.9094V40.6452H52.9374ZM56.1291 35.3623L49.9655 40.6452H40.6452V32.9032H56.1291V35.3623ZM38.7097 25.1613H25.6577L25.98 23.2259H38.7097V25.1613ZM38.7097 36.7743H32.9033V32.9033H38.7097V36.7743ZM25.3355 27.0968H30.9677V34.8388H24.0455L25.3355 27.0968ZM32.9032 38.7097H38.7096V40.6452H32.9032V38.7097ZM38.7097 30.9677H32.9033V27.0968H38.7097V30.9677ZM44.5161 27.0968V30.9677H40.6452V27.0968H44.5161ZM52.2581 29.0323V30.9677H46.4517V29.0323H52.2581ZM40.6452 19.3548C41.7127 19.3548 42.5807 20.2229 42.5807 21.2903V25.1612H40.6452V23.2258C40.6452 22.1583 39.7771 21.2903 38.7097 21.2903C38.7097 20.2229 39.5777 19.3548 40.6452 19.3548ZM27.0968 13.7429C27.0968 14.1523 27.0319 14.5558 26.9023 14.9429L26.8936 14.9681C24.7423 12.51 22.0268 10.5765 18.9774 9.35616L19.5513 7.92102L24.841 10.2717C26.2113 10.8803 27.0968 12.2429 27.0968 13.7429ZM17.7813 7.13425L17.1484 8.71649C16.1642 8.42712 15.1548 8.20554 14.1232 8.06813L11.9216 7.77391C11.8161 7.76037 11.7164 7.77199 11.6129 7.76714V4.3926L17.7813 7.13425ZM1.93547 9.67746C1.93547 5.40873 5.40873 1.93547 9.67746 1.93547V8.20261C8.53644 8.83167 7.74198 10.0413 7.74198 11.432V11.6613C7.74198 13.0201 8.5036 14.2635 9.67746 14.9023V34.8387H7.69935L6.79648 14.9893C6.76647 14.3409 6.41617 13.7544 5.85875 13.4187L1.93557 11.0651L1.93547 9.67746ZM1.93547 15.4839V13.322L4.86293 15.0784L4.88132 15.4839H1.93547ZM4.96932 17.4193L5.67284 32.9032H3.87094V17.4193H4.96932ZM1.93547 35.3032C1.93547 35.0477 2.14452 34.8388 2.39994 34.8388H5.76095L5.78994 35.4678L3.79638 37.7933L2.03701 35.5946C1.97134 35.5123 1.93547 35.4087 1.93547 35.3032ZM4.20487 53.1891L3.84386 52.6839C2.59545 50.9361 1.93547 48.8768 1.93547 46.7284C1.93547 44.2849 2.81126 41.9158 4.4022 40.0598L6.97733 37.0559L10.2889 56.0982C10.1651 56.106 10.0422 56.1292 9.91732 56.1292C7.65489 56.1291 5.51906 55.0297 4.20487 53.1891ZM14.3516 52.2581H15.4839V53.7097L14.13 54.7248C13.5425 55.1662 12.8855 55.5058 12.1926 55.7439L8.8926 36.7743H9.84194L12.449 50.6797C12.6213 51.5942 13.4207 52.2581 14.3516 52.2581ZM21.0552 20.9768C18.4393 17.4891 14.8984 14.8355 10.8165 13.3045C10.1352 13.049 9.67746 12.389 9.67746 11.6622V11.4329C9.67746 10.3877 10.6065 9.55348 11.6652 9.69291L13.8678 9.98713C20.4223 10.861 26.071 15.2391 28.6027 21.2904H25.98C25.0316 21.2904 24.2284 21.9698 24.0706 22.9085L23.7851 24.6195L21.0552 20.9768ZM23.2259 39.8255C23.2259 39.78 23.2297 39.7345 23.2375 39.69L23.7233 36.7742H30.9677V40.6451H24.0455C23.5935 40.6452 23.2259 40.2774 23.2259 39.8255ZM30.9677 42.5807H48.3871V44.5161H30.9677V42.5807ZM21.2903 52.2581C21.2903 49.0558 23.8945 46.4517 27.0967 46.4517H50.3227V48.3872H30.9377C30.1316 47.7872 29.1435 47.4194 28.0645 47.4194C25.3964 47.4194 23.2259 49.5901 23.2259 52.2581C23.2259 54.9261 25.3965 57.0968 28.0645 57.0968C29.911 57.0968 31.4991 56.0458 32.3149 54.5217L32.341 54.5991C32.8395 56.0933 34.2321 57.0968 35.8065 57.0968C36.9698 57.0968 38.0324 56.5461 38.7097 55.6568C39.3872 56.5461 40.4497 57.0968 41.6129 57.0968C42.7762 57.0968 43.8388 56.5461 44.5161 55.6568C45.1936 56.5461 46.2561 57.0968 47.4193 57.0968C48.5826 57.0968 49.6452 56.5461 50.3225 55.6568V58.0645H27.0968C23.8945 58.0645 21.2903 55.4603 21.2903 52.2581ZM52.2581 58.0645V46.4516C55.4604 46.4516 58.0645 49.0558 58.0645 52.258C58.0645 55.4602 55.4603 58.0645 52.2581 58.0645Z" fill="#ED6928"/>
</g>
<defs>
<clipPath id="clip0_96_277">
<rect width="60" height="60" fill="white"/>
</clipPath>
</defs>
</svg>
