<svg width="60" height="60" viewBox="0 0 60 60" fill="none" xmlns="http://www.w3.org/2000/svg">
<path d="M5 53H7V55H5V53Z" fill="#ED6928"/>
<path d="M8 53H10V55H8V53Z" fill="#ED6928"/>
<path d="M5 22H7V24H5V22Z" fill="#ED6928"/>
<path d="M8 22H10V24H8V22Z" fill="#ED6928"/>
<path d="M54.3226 6.6129H49.5507C49.1157 4.48094 47.226 2.87097 44.9677 2.87097H33.7419C31.4837 2.87097 29.594 4.48094 29.159 6.6129H25.3226V2.87097C25.3226 1.83913 24.4835 1 23.4516 1H2.87097C1.83913 1 1 1.83913 1 2.87097V25.3226C1 26.3544 1.83913 27.1935 2.87097 27.1935H19.7097V32.8065H2.87097C1.83913 32.8065 1 33.6456 1 34.6774V57.129C1 58.1609 1.83913 59 2.87097 59H23.4516C24.4835 59 25.3226 58.1609 25.3226 57.129H54.3226C56.9017 57.129 59 55.0307 59 52.4516V11.2903C59 8.71119 56.9017 6.6129 54.3226 6.6129ZM33.7419 4.74194H44.9677C46.515 4.74194 47.7742 6.0011 47.7742 7.54839C47.7742 8.06384 47.3551 8.48387 46.8387 8.48387H31.871C31.3546 8.48387 30.9355 8.06384 30.9355 7.54839C30.9355 6.0011 32.1946 4.74194 33.7419 4.74194ZM14.0968 4.74194V8.48387H12.2258V4.74194H10.3548V8.48387H8.48387V2.87097H17.8387V8.48387H15.9677V4.74194H14.0968ZM2.87097 2.87097H6.6129V8.48387C6.6129 9.51571 7.45203 10.3548 8.48387 10.3548H17.8387C18.8705 10.3548 19.7097 9.51571 19.7097 8.48387V2.87097H23.4516L23.4525 25.3226H2.87097V2.87097ZM14.0968 36.5484V40.2903H12.2258V36.5484H10.3548V40.2903H8.48387V34.6774H17.8387V40.2903H15.9677V36.5484H14.0968ZM2.87097 57.129V34.6774H6.6129V40.2903C6.6129 41.3222 7.45203 42.1613 8.48387 42.1613H17.8387C18.8705 42.1613 19.7097 41.3222 19.7097 40.2903V34.6774H23.4516L23.4525 57.129H2.87097ZM57.129 52.4516C57.129 53.9989 55.8699 55.2581 54.3226 55.2581H25.3226V34.6774C25.3226 33.6456 24.4835 32.8065 23.4516 32.8065H21.5806V27.1935H23.4516C24.4835 27.1935 25.3226 26.3544 25.3226 25.3226V8.48387H29.2366C29.6239 9.56997 30.653 10.3548 31.871 10.3548H46.8387C48.0567 10.3548 49.0857 9.56997 49.473 8.48387H54.3226C55.8699 8.48387 57.129 9.74303 57.129 11.2903V52.4516Z" fill="#ED6928"/>
<path d="M36.4842 15.1545V14.6039H27V24H36.4842V17.8117L40 14.3286L38.6589 13L36.4842 15.1545ZM34.5874 22.1208H28.8968V16.4831H34.5874V17.0337L32.6905 18.913L31.4642 17.698L30.1231 19.0267L32.6905 21.5702L34.5874 19.691V22.1208Z" fill="#ED6928"/>
<path d="M42 14H53V16H42V14Z" fill="#ED6928"/>
<path d="M42 18H53V20H42V18Z" fill="#ED6928"/>
<path d="M52 22H54V24H52V22Z" fill="#ED6928"/>
<path d="M42 22H49V24H42V22Z" fill="#ED6928"/>
<path d="M36.4842 28.1545V27.6039H27V37H36.4842V30.8117L40 27.3286L38.6589 26L36.4842 28.1545ZM34.5874 35.1208H28.8968V29.4831H34.5874V30.0337L32.6905 31.913L31.4642 30.698L30.1231 32.0267L32.6905 34.5702L34.5874 32.691V35.1208Z" fill="#ED6928"/>
<path d="M42 27H53V29H42V27Z" fill="#ED6928"/>
<path d="M42 31H53V33H42V31Z" fill="#ED6928"/>
<path d="M52 35H54V37H52V35Z" fill="#ED6928"/>
<path d="M42 35H49V37H42V35Z" fill="#ED6928"/>
<path d="M38.6589 39L36.4842 41.1545V40.6039H27V50H36.4842V43.8117L40 40.3286L38.6589 39ZM34.5874 48.1208H28.8968V42.4831H34.5874V43.0337L32.6905 44.913L31.4642 43.698L30.1231 45.0267L32.6905 47.5702L34.5874 45.691V48.1208Z" fill="#ED6928"/>
<path d="M42 40H53V42H42V40Z" fill="#ED6928"/>
<path d="M42 44H53V46H42V44Z" fill="#ED6928"/>
<path d="M52 48H54V50H52V48Z" fill="#ED6928"/>
<path d="M42 48H49V50H42V48Z" fill="#ED6928"/>
</svg>
