<svg width="60" height="60" viewBox="0 0 60 60" fill="none" xmlns="http://www.w3.org/2000/svg">
<rect width="60" height="60" rx="30" fill="#ED6928"/>
<path d="M21 30C21 32.8429 22.3174 35.3775 24.375 37.0268V39.7448C21.0124 37.7996 18.75 34.1648 18.75 30H21ZM30 18.75C35.8331 18.75 40.6301 23.1904 41.1938 28.875H38.9303C38.3768 24.4358 34.59 21 30 21C26.9062 21 24.177 22.5604 22.5581 24.9375H25.5V27.1875H18.75V20.4375H21V23.25C23.052 20.5162 26.3201 18.75 30 18.75Z" fill="white"/>
<path d="M35.076 38.5526H28V36.0597H34.9737C35.4638 36.0597 35.8622 35.9936 36.169 35.8615C36.4801 35.7251 36.7081 35.5334 36.853 35.2862C37.0021 35.0348 37.0746 34.7322 37.0703 34.3786C37.0746 34.0376 37.0021 33.7287 36.853 33.4517C36.7081 33.1705 36.4865 32.9467 36.1882 32.7805C35.8942 32.6143 35.5234 32.5312 35.076 32.5312H32.9283V43.0909H29.7834V30H35.076C36.1328 30 37.049 30.1875 37.8246 30.5625C38.6001 30.9375 39.1989 31.451 39.6207 32.103C40.0426 32.755 40.2514 33.4986 40.2472 34.3338C40.2514 35.2287 40.0362 35.9893 39.6016 36.6158C39.1712 37.2422 38.5661 37.7216 37.7862 38.054C37.0107 38.3864 36.1072 38.5526 35.076 38.5526ZM35.7727 39.2685V41.755H28V39.2685H35.7727Z" fill="white"/>
</svg>
