<svg width="60" height="60" viewBox="0 0 60 60" fill="none" xmlns="http://www.w3.org/2000/svg">
<path d="M54.3226 6.6129H51.5161V3.80645C51.5161 2.25916 50.257 1 48.7097 1C47.1624 1 45.9032 2.25916 45.9032 3.80645V6.6129H44.0323V3.80645C44.0323 2.25916 42.7731 1 41.2258 1C39.6785 1 38.4194 2.25916 38.4194 3.80645V6.6129H36.5484V3.80645C36.5484 2.25916 35.2892 1 33.7419 1C32.1946 1 30.9355 2.25916 30.9355 3.80645V6.6129H29.0645V3.80645C29.0645 2.25916 27.8054 1 26.2581 1C24.7108 1 23.4516 2.25916 23.4516 3.80645V6.6129H20.6452C18.066 6.6129 15.9677 8.71119 15.9677 11.2903V23.4516H3.80645C2.25916 23.4516 1 24.7108 1 26.2581V41.2258C1 42.7731 2.25916 44.0323 3.80645 44.0323H15.9677V54.3226C15.9677 56.9017 18.066 59 20.6452 59H57.129C58.1609 59 59 58.1609 59 57.129V11.2903C59 8.71119 56.9017 6.6129 54.3226 6.6129ZM23.4516 44.0323H29.0645V47.7742H23.4516V44.0323ZM30.9355 43.8601C31.7278 43.5776 32.3518 42.9536 32.6343 42.1613H36.5484V47.7742H30.9355V43.8601ZM32.8065 34.6774H36.5484V40.2903H32.8065V34.6774ZM36.5484 27.1935V32.8065H32.8065V27.1935H36.5484ZM51.5161 32.8065H45.9032V27.1935H51.5161V32.8065ZM44.0323 32.8065H38.4194V27.1935H44.0323V32.8065ZM38.4194 34.6774H44.0323V40.2903H38.4194V34.6774ZM45.9032 34.6774H51.5161V40.2903H45.9032V34.6774ZM51.5161 25.3226H45.9032V19.7097H51.5161V25.3226ZM44.0323 25.3226H38.4194V19.7097H44.0323V25.3226ZM36.5484 25.3226H32.6343C32.3518 24.5302 31.7278 23.9063 30.9355 23.6237V19.7097H36.5484V25.3226ZM29.0645 23.4516H23.4516V19.7097H29.0645V23.4516ZM30.9355 30.9355H2.87097V29.0645H30.9355V30.9355ZM38.4194 42.1613H44.0323V47.7742H38.4194V42.1613ZM45.9032 42.1613H51.5161V47.7742H48.7097H47.7742H45.9032V42.1613ZM49.6452 49.6452H55.8063L49.6452 55.8063V49.6452ZM47.7742 3.80645C47.7742 3.29006 48.1933 2.87097 48.7097 2.87097C49.2261 2.87097 49.6452 3.29006 49.6452 3.80645V9.41935C49.6452 9.93574 49.2261 10.3548 48.7097 10.3548C48.1933 10.3548 47.7742 9.93574 47.7742 9.41935V3.80645ZM40.2903 3.80645C40.2903 3.29006 40.7094 2.87097 41.2258 2.87097C41.7422 2.87097 42.1613 3.29006 42.1613 3.80645V9.41935C42.1613 9.93574 41.7422 10.3548 41.2258 10.3548C40.7094 10.3548 40.2903 9.93574 40.2903 9.41935V3.80645ZM32.8065 3.80645C32.8065 3.29006 33.2255 2.87097 33.7419 2.87097C34.2583 2.87097 34.6774 3.29006 34.6774 3.80645V9.41935C34.6774 9.93574 34.2583 10.3548 33.7419 10.3548C33.2255 10.3548 32.8065 9.93574 32.8065 9.41935V3.80645ZM25.3226 3.80645C25.3226 3.29006 25.7417 2.87097 26.2581 2.87097C26.7745 2.87097 27.1935 3.29006 27.1935 3.80645V9.41935C27.1935 9.93574 26.7745 10.3548 26.2581 10.3548C25.7417 10.3548 25.3226 9.93574 25.3226 9.41935V3.80645ZM20.6452 8.48387H23.4516V9.41935C23.4516 10.9666 24.7108 12.2258 26.2581 12.2258C27.8054 12.2258 29.0645 10.9666 29.0645 9.41935V8.48387H30.9355V9.41935C30.9355 10.9666 32.1946 12.2258 33.7419 12.2258C35.2892 12.2258 36.5484 10.9666 36.5484 9.41935V8.48387H38.4194V9.41935C38.4194 10.9666 39.6785 12.2258 41.2258 12.2258C42.7731 12.2258 44.0323 10.9666 44.0323 9.41935V8.48387H45.9032V9.41935C45.9032 10.9666 47.1624 12.2258 48.7097 12.2258C50.257 12.2258 51.5161 10.9666 51.5161 9.41935V8.48387H54.3226C55.8699 8.48387 57.129 9.74303 57.129 11.2903V14.0968H17.8387V11.2903C17.8387 9.74303 19.0979 8.48387 20.6452 8.48387ZM17.8387 15.9677H57.129V47.7742H53.3871V17.8387H21.5806V23.4516H17.8387V15.9677ZM3.80645 25.3226H30C30.5164 25.3226 30.9355 25.7417 30.9355 26.2581V27.1935H2.87097V26.2581C2.87097 25.7417 3.29006 25.3226 3.80645 25.3226ZM2.87097 41.2258V32.8065H30.9355V41.2258C30.9355 41.7422 30.5164 42.1613 30 42.1613H3.80645C3.29006 42.1613 2.87097 41.7422 2.87097 41.2258ZM17.8387 54.3226V44.0323H21.5806V49.6452H47.7742V57.129H20.6452C19.0979 57.129 17.8387 55.8699 17.8387 54.3226ZM50.9679 57.129L57.129 50.9679V57.129H50.9679Z" fill="#ED6928"/>
<path d="M22 52H34V54H22V52Z" fill="#ED6928"/>
<path d="M37 52H45V54H37V52Z" fill="#ED6928"/>
<path d="M26.3 35C25.6061 35 24.9788 35.301 24.5 35.78C24.0212 35.3 23.3939 35 22.7 35C21.2114 35 20 36.346 20 38C20 39.654 21.2114 41 22.7 41C23.3939 41 24.0212 40.699 24.5 40.22C24.9788 40.7 25.6061 41 26.3 41C27.7886 41 29 39.654 29 38C29 36.346 27.7886 35 26.3 35ZM22.7 39C22.2032 39 21.8 38.552 21.8 38C21.8 37.448 22.2032 37 22.7 37C23.1968 37 23.6 37.448 23.6 38C23.6 38.552 23.1968 39 22.7 39ZM26.3 39C25.8032 39 25.4 38.552 25.4 38C25.4 37.448 25.8032 37 26.3 37C26.7968 37 27.2 37.448 27.2 38C27.2 38.552 26.7968 39 26.3 39Z" fill="#ED6928"/>
<path d="M5 38H12V40H5V38Z" fill="#ED6928"/>
<path d="M5 35H9V37H5V35Z" fill="#ED6928"/>
</svg>
