<svg width="61" height="60" viewBox="0 0 61 60" fill="none" xmlns="http://www.w3.org/2000/svg">
<rect x="0.5" width="60" height="60" rx="30" fill="#ED6928"/>
<path d="M36.6875 40.125C35.6432 40.125 34.6417 39.7102 33.9033 38.9717C33.1648 38.2333 32.75 37.2318 32.75 36.1875C32.75 35.1432 33.1648 34.1417 33.9033 33.4033C34.6417 32.6648 35.6432 32.25 36.6875 32.25C37.7318 32.25 38.7333 32.6648 39.4717 33.4033C40.2102 34.1417 40.625 35.1432 40.625 36.1875C40.625 37.2318 40.2102 38.2333 39.4717 38.9717C38.7333 39.7102 37.7318 40.125 36.6875 40.125ZM36.6875 37.875C37.1351 37.875 37.5643 37.6972 37.8807 37.3807C38.1972 37.0643 38.375 36.6351 38.375 36.1875C38.375 35.7399 38.1972 35.3107 37.8807 34.9943C37.5643 34.6778 37.1351 34.5 36.6875 34.5C36.2399 34.5 35.8107 34.6778 35.4943 34.9943C35.1778 35.3107 35 35.7399 35 36.1875C35 36.6351 35.1778 37.0643 35.4943 37.3807C35.8107 37.6972 36.2399 37.875 36.6875 37.875ZM24.3125 27.75C23.7954 27.75 23.2834 27.6482 22.8057 27.4503C22.328 27.2524 21.8939 26.9624 21.5283 26.5967C21.1626 26.2311 20.8726 25.797 20.6747 25.3193C20.4768 24.8416 20.375 24.3296 20.375 23.8125C20.375 23.2954 20.4768 22.7834 20.6747 22.3057C20.8726 21.828 21.1626 21.3939 21.5283 21.0283C21.8939 20.6626 22.328 20.3726 22.8057 20.1747C23.2834 19.9768 23.7954 19.875 24.3125 19.875C25.3568 19.875 26.3583 20.2898 27.0967 21.0283C27.8352 21.7667 28.25 22.7682 28.25 23.8125C28.25 24.8568 27.8352 25.8583 27.0967 26.5967C26.3583 27.3352 25.3568 27.75 24.3125 27.75ZM24.3125 25.5C24.7601 25.5 25.1893 25.3222 25.5057 25.0057C25.8222 24.6893 26 24.2601 26 23.8125C26 23.3649 25.8222 22.9357 25.5057 22.6193C25.1893 22.3028 24.7601 22.125 24.3125 22.125C23.8649 22.125 23.4357 22.3028 23.1193 22.6193C22.8028 22.9357 22.625 23.3649 22.625 23.8125C22.625 24.2601 22.8028 24.6893 23.1193 25.0057C23.4357 25.3222 23.8649 25.5 24.3125 25.5ZM38.4549 20.4544L40.0456 22.0451L22.5462 39.5456L20.9555 37.9549L38.4538 20.4544H38.4549Z" fill="white"/>
</svg>
