<svg width="60" height="60" viewBox="0 0 60 60" fill="none" xmlns="http://www.w3.org/2000/svg">
<path d="M11 6H13V8H11V6Z" fill="#ED6928"/>
<path d="M34.6774 1L13.1613 11.3093V9.50703H11.2903V25.3818H13.3446L10.0564 30.6327C9.78139 31.0734 9.05732 31.0734 8.78135 30.6327L5.49406 25.3828H7.54839V5.77271H5.67742V23.5151H2.11884L6.79626 30.9856H1V44.059V44.9928V59H57.129V17.9123H59V12.6558L34.6774 1ZM8.48387 32.8514H10.3548V34.719H8.48387V32.8514ZM15.9677 57.1305H2.87097V45.9248H6.6129V49.66H12.2258V45.9248H15.9677V57.1305ZM8.48387 47.7924V45.9248H10.3548V47.7924H8.48387ZM15.9677 44.0571H2.87097V32.8514H6.6129V36.5866H12.2258V32.8514H15.9677V44.0571ZM30.9355 57.1305H17.8387V45.9248H21.5806V49.66H27.1935V45.9248H30.9355V57.1305ZM23.4516 47.7924V45.9248H25.3226V47.7924H23.4516ZM36.5484 35.6528V44.991V45.9248V46.8586V57.1305H32.8065V44.0571H23.4516V34.719H27.1935V38.4543H32.8065V34.719H36.5484V35.6528ZM29.0645 36.5866V34.719H30.9355V36.5866H29.0645ZM36.5484 32.8514H23.4516V23.5133H27.1935V27.2485H32.8065V23.5133H36.5484V32.8514ZM29.0645 25.3818V23.5142H30.9355V25.3818H29.0645ZM51.5161 57.1305H38.4194V47.7924H42.1613V51.5276H47.7742V47.7924H51.5161V57.1305ZM44.0323 49.66V47.7924H45.9032V49.66H44.0323ZM51.5161 45.9248H38.4194V44.991V36.5866H42.1613V40.3219H47.7742V36.5866H51.5161V45.9248ZM44.0323 38.4543V36.5866H45.9032V38.4543H44.0323ZM51.5161 34.719H38.4194V33.7852V32.8514V25.3809H42.1613V29.1161H47.7742V25.3809H51.5161V34.719ZM44.0323 27.2495V25.3818H45.9032V27.2495H44.0323ZM55.2581 57.1305H53.3871V46.8586V45.9248V35.6528V34.719V23.5133H38.4194V21.6457H21.5806V32.8514V33.7852V44.0571H17.8387V30.9838H12.0434L16.7208 23.5133H13.1622V17.9104H55.259V57.1305H55.2581ZM57.129 16.0437H13.1613V13.3814L34.6774 3.07213L57.129 13.8296V16.0437Z" fill="#ED6928"/>
</svg>
