<svg width="24" height="24" fill="none" xmlns="http://www.w3.org/2000/svg"><path fill-rule="evenodd" clip-rule="evenodd" d="M14 12.574V22l7.668-4.662a.652.652 0 00.332-.565V8l-8 4.574zm7-5.125L13.5 12l-2.465-1.496 7.063-4.816L21 7.448zm-15 0l3.828 2.323 7.064-4.816-3.077-1.868a.606.606 0 00-.63 0L6 7.448zm-.5 4.75V8l7.5 4.574V22l-5.037-3.267H9.25c.345 0 .625-.293.625-.654 0-.36-.28-.653-.625-.653H3.447l-.136-.088A.66.66 0 013 16.773v-.654h8.125a.64.64 0 00.625-.653c0-.36-.28-.653-.625-.653H3v-1.307h6.25c.345 0 .625-.293.625-.654 0-.36-.28-.653-.625-.653H5.5z" fill="#ED6928"/></svg>