<svg width="60" height="60" fill="none" xmlns="http://www.w3.org/2000/svg"><g clip-path="url(#clip0_96_277)" fill="#ED6928"><path d="M28 53a1 1 0 100-2 1 1 0 000 2zm27 0a1 1 0 100-2 1 1 0 000 2z"/><path d="M52.258 44.516h-1.935v-1.935h5.806a1.937 1.937 0 001.936-1.936v-7.742a1.937 1.937 0 00-1.936-1.935h-1.935v-1.936a1.937 1.937 0 00-1.936-1.935h-5.806a1.937 1.937 0 00-1.936-1.936v-3.87a3.875 3.875 0 00-3.87-3.872 3.875 3.875 0 00-3.872 3.871h-6.103a20.368 20.368 0 00-2.343-4.503l.41-1.23a5.732 5.732 0 00-3.111-7.054L11.613 2.274v-.338A1.938 1.938 0 009.677 0C4.341 0 0 4.341 0 9.677v5.807c0 1.067.868 1.935 1.935 1.935v15.532a2.402 2.402 0 00-1.41 3.853l2.008 2.51A12.174 12.174 0 000 46.727c0 2.554.785 5.003 2.268 7.08l.361.505a8.972 8.972 0 007.288 3.752 9 9 0 005.374-1.793l1.352-1.014a1.94 1.94 0 00.776-1.548v-1.452a1.937 1.937 0 00-1.935-1.936h-1.133l-2.738-14.606V15.74a20.828 20.828 0 017.894 6.397l3.84 5.12-2.019 12.116a2.758 2.758 0 002.717 3.208h4.987v1.935h-1.935c-4.269 0-7.742 3.474-7.742 7.742 0 4.269 3.473 7.742 7.742 7.742h25.161C56.527 60 60 56.527 60 52.258s-3.473-7.742-7.742-7.742zm-21.29 7.742c0 1.6-1.303 2.903-2.904 2.903a2.907 2.907 0 01-2.903-2.903c0-1.6 1.303-2.903 2.903-2.903a2.907 2.907 0 012.904 2.903zm19.355 0h-17.42a4.79 4.79 0 00-.41-1.935h17.83v1.935zm-12.994 1.936a1.7 1.7 0 01-1.523.967 1.7 1.7 0 01-1.522-.967h3.045zm5.806 0c-.286.58-.861.967-1.522.967a1.7 1.7 0 01-1.522-.967h3.044zm5.807 0c-.287.58-.862.967-1.523.967-.66 0-1.235-.388-1.522-.967h3.045zm3.995-13.549l3.192-2.736v2.736h-3.192zm3.192-5.283l-6.163 5.283h-9.32v-7.742h15.483v2.46zm-17.42-10.2h-13.05l.322-1.936h12.73v1.935zm0 11.612h-5.806v-3.87h5.807v3.87zm-13.374-9.677h5.633v7.742h-6.922l1.29-7.742zm7.568 11.613h5.807v1.935h-5.807V38.71zm5.807-7.742h-5.807v-3.871h5.807v3.87zm5.806-3.871v3.87h-3.87v-3.87h3.87zm7.742 1.935v1.936h-5.806v-1.936h5.806zm-11.613-9.677c1.068 0 1.936.868 1.936 1.935v3.871h-1.936v-1.935a1.937 1.937 0 00-1.935-1.936c0-1.067.868-1.935 1.935-1.935zm-13.548-5.612c0 .41-.065.813-.195 1.2l-.008.025a20.812 20.812 0 00-7.917-5.612l.574-1.435 5.29 2.35a3.801 3.801 0 012.256 3.472zM17.78 7.134l-.633 1.582a20.158 20.158 0 00-3.025-.648l-2.201-.294c-.106-.014-.206-.002-.31-.007V4.393l6.17 2.741zM1.935 9.677c0-4.268 3.474-7.742 7.742-7.742v6.268c-1.14.629-1.935 1.838-1.935 3.229v.23c0 1.358.762 2.601 1.935 3.24V34.84H7.7l-.903-19.85a1.934 1.934 0 00-.937-1.57l-3.923-2.354V9.677zm0 5.807v-2.162l2.928 1.756.018.406H1.935zm3.034 1.935l.704 15.484H3.87V17.42h1.098zM1.935 35.303c0-.255.21-.464.465-.464h3.36l.029.629-1.994 2.325-1.759-2.198a.469.469 0 01-.102-.292zm2.27 17.886l-.361-.505a10.189 10.189 0 01-1.909-5.956c0-2.443.876-4.812 2.467-6.668l2.575-3.004 3.312 19.042c-.124.008-.247.031-.372.031a7.034 7.034 0 01-5.712-2.94zm10.147-.93h1.132v1.45l-1.354 1.016a7.018 7.018 0 01-1.937 1.019l-3.3-18.97h.949l2.607 13.906a1.937 1.937 0 001.903 1.578zm6.703-31.282a22.776 22.776 0 00-10.239-7.672 1.763 1.763 0 01-1.139-1.643v-.23c0-1.044.93-1.879 1.988-1.74l2.203.295c6.554.874 12.203 5.252 14.735 11.303H25.98c-.948 0-1.752.68-1.91 1.619l-.285 1.71-2.73-3.642zm2.17 18.848a.88.88 0 01.012-.135l.486-2.916h7.245v3.871h-6.922a.82.82 0 01-.82-.82zm7.743 2.756h17.42v1.935h-17.42v-1.935zm-9.678 9.677a5.812 5.812 0 015.807-5.806h23.226v1.935H30.938a4.794 4.794 0 00-2.873-.968 4.844 4.844 0 00-4.84 4.84 4.844 4.844 0 004.84 4.838c1.846 0 3.434-1.051 4.25-2.575l.026.077a3.649 3.649 0 006.369 1.058 3.647 3.647 0 005.806 0 3.647 3.647 0 005.806 0v2.408H27.097a5.812 5.812 0 01-5.807-5.807zm30.968 5.806V46.453a5.812 5.812 0 015.806 5.806 5.812 5.812 0 01-5.806 5.806z"/></g><defs><clipPath id="clip0_96_277"><path fill="#fff" d="M0 0h60v60H0z"/></clipPath></defs></svg>