<svg width="60" height="60" fill="none" xmlns="http://www.w3.org/2000/svg"><g clip-path="url(#clip0_96_325)" fill="#ED6928"><path d="M57 54c-1.654 0-3 1.346-3 3s1.346 3 3 3 3-1.346 3-3-1.346-3-3-3zm0 4c-.55 0-1-.448-1-1s.45-1 1-1 1 .448 1 1-.45 1-1 1zM6 3c0-1.654-1.346-3-3-3S0 1.346 0 3s1.346 3 3 3 3-1.346 3-3zM2 3c0-.55.45-1 1-1s1 .45 1 1-.45 1-1 1-1-.45-1-1zm49.847 34.76L49.948 34a20.98 20.98 0 001.032-2.44L55 30.235V19.346l-4.02-1.327a20.819 20.819 0 00-1.032-2.44l1.901-3.762-7.779-7.699L40.269 6a21.267 21.267 0 00-2.466-1.021L36.463 1H25.46l-1.34 3.979a21.4 21.4 0 00-2.465 1.02l-3.802-1.88-7.78 7.698 1.902 3.762a20.819 20.819 0 00-1.032 2.44l-4.02 1.327v10.888l4.02 1.326c.281.808.623 1.618 1.022 2.42l-1.237 2.23H5v19.032h6.73v-2.855h7.295l2.885 2.855h5.205v.952c0 2.099 1.725 3.806 3.847 3.806 2.12 0 3.846-1.707 3.846-3.806v-.952h6.731c1.59 0 2.885-1.281 2.885-2.855a2.82 2.82 0 00-.75-1.903c.462-.507.75-1.17.75-1.903a2.82 2.82 0 00-.75-1.904c.367-.403.618-.907.706-1.468l7.467-7.45zm-37.942-4.202a18.94 18.94 0 01-1.283-3.036l-.148-.462-3.628-1.198v-8.144l3.628-1.197.147-.463c.321-1.008.753-2.03 1.283-3.036l.226-.43-1.717-3.399 5.819-5.758 3.433 1.698.436-.223a19.25 19.25 0 013.067-1.27l.469-.145 1.21-3.592h8.23l1.209 3.59.468.146a19.21 19.21 0 013.067 1.27l.436.223 3.433-1.698 5.819 5.758-1.717 3.398.226.431c.53 1.007.962 2.028 1.283 3.036l.147.463 3.629 1.199v8.144l-3.628 1.197-.148.462a18.941 18.941 0 01-1.283 3.036l-.226.432 1.719 3.4-5.682 5.666a2.934 2.934 0 00-.155-.185c.462-.507.75-1.17.75-1.903 0-1.485-1.155-2.693-2.62-2.829 4.08-3.235 6.465-8.09 6.465-13.349 0-9.444-7.764-17.129-17.307-17.129s-17.308 7.685-17.308 17.13c0 5.194 2.386 10.08 6.437 13.322h-8.225l2.276-4.103-.237-.452zm28.596 15.023a.958.958 0 01-.962.951h-7.693a.958.958 0 01-.961-.951c0-.525.432-.952.961-.952h7.693c.53 0 .962.427.962.952zM28.64 24.79h4.642l1.525-1.51v-4.2c1.06 0 1.923.853 1.923 1.903v4.364l-3.283 3.249h-4.973l-3.283-3.25v-4.363c0-1.05.863-1.903 1.923-1.903v4.2l1.525 1.51zm.398 5.709h3.846v3.806h-3.846V30.5zm5.769-.558l3.846-3.806v-5.152c0-2.1-1.725-3.807-3.846-3.807h-1.923v5.316l-.398.394h-3.05l-.399-.394v-5.316h-1.923c-2.12 0-3.846 1.708-3.846 3.807v5.152l3.846 3.806v4.364h-2.32l-.061.06c-3.283-2.096-5.31-5.69-5.31-9.576 0-6.297 5.175-11.419 11.538-11.419 6.362 0 11.538 5.122 11.538 11.42 0 3.856-1.947 7.389-5.206 9.515h-2.486v-4.364zm9.615-5.152c0-7.346-6.038-13.322-13.462-13.322-7.423 0-13.461 5.976-13.461 13.322 0 4.396 2.21 8.489 5.834 10.962l-1.385 1.37c-3.993-2.862-6.372-7.443-6.372-12.332 0-8.395 6.902-15.225 15.385-15.225 8.482 0 15.384 6.83 15.384 15.225 0 4.703-2.148 9.043-5.815 11.92a2.826 2.826 0 00-.958-1.694c3.065-2.518 4.85-6.226 4.85-10.226zM41.54 40.016c.53 0 .962.427.962.952a.958.958 0 01-.962.951h-7.693a.958.958 0 01-.961-.951c0-.525.432-.952.961-.952h7.693zm-7.693 5.71a.958.958 0 01-.961-.952c0-.525.432-.951.961-.951h7.693c.53 0 .962.426.962.951a.958.958 0 01-.962.952h-7.693zM9.808 53.339H6.923V38.113h2.885v15.226zm12.898 0l-2.885-2.855h-8.09V40.016h10.013l3.846-3.806h12.102c.53 0 .962.426.962.951a.958.958 0 01-.962.952H27.68l-4.128 4.085 1.36 1.346 2.204-2.182v11.977h-4.41zm8.256 4.758a1.915 1.915 0 01-1.924-1.904V40.017h2.1a2.792 2.792 0 00-.177.952c0 .733.29 1.396.75 1.903a2.816 2.816 0 00-.75 1.903c0 .734.29 1.397.75 1.903a2.816 2.816 0 00-.75 1.904c0 .733.29 1.396.75 1.903a2.816 2.816 0 00-.75 1.903c0 1.239.807 2.286 1.924 2.68v1.127c0 1.05-.863 1.903-1.923 1.903zm10.577-4.758h-7.693a.958.958 0 01-.961-.952c0-.525.432-.952.961-.952h7.693c.53 0 .962.427.962.952a.958.958 0 01-.962.952zM2 9h2v2H2V9zm0 4h2v2H2v-2zm0 5h2v2H2v-2zm54 22h2v2h-2v-2zm0 5h2v2h-2v-2zm0 5h2v2h-2v-2z"/></g><defs><clipPath id="clip0_96_325"><path fill="#fff" d="M0 0h60v60H0z"/></clipPath></defs></svg>