<svg width="60" height="60" fill="none" xmlns="http://www.w3.org/2000/svg"><path d="M5 53h2v2H5v-2zm3 0h2v2H8v-2zM5 22h2v2H5v-2zm3 0h2v2H8v-2z" fill="#ED6928"/><path d="M54.323 6.613H49.55a4.686 4.686 0 00-4.583-3.742H33.742a4.686 4.686 0 00-4.583 3.742h-3.836V2.87c0-1.032-.84-1.871-1.871-1.871H2.87A1.875 1.875 0 001 2.871v22.452c0 1.031.84 1.87 1.871 1.87H19.71v5.613H2.87c-1.032 0-1.871.84-1.871 1.871V57.13A1.875 1.875 0 002.871 59h20.58c1.032 0 1.872-.84 1.872-1.871h29A4.683 4.683 0 0059 52.452V11.29a4.683 4.683 0 00-4.677-4.677zM33.742 4.742h11.226a2.81 2.81 0 012.806 2.806.936.936 0 01-.935.936H31.87a.936.936 0 01-.935-.936 2.81 2.81 0 012.806-2.806zm-19.645 0v3.742h-1.871V4.742h-1.871v3.742H8.484V2.87h9.355v5.613h-1.871V4.742h-1.871zM2.87 2.87h3.742v5.613c0 1.032.839 1.87 1.87 1.87h9.356c1.032 0 1.87-.838 1.87-1.87V2.87h3.743v22.452H2.872V2.87zm11.226 33.677v3.742h-1.871v-3.742h-1.871v3.742h-1.87v-5.613h9.355v5.613h-1.871v-3.742h-1.871zM2.87 57.13V34.677h3.742v5.613c0 1.032.839 1.871 1.87 1.871h9.356c1.032 0 1.87-.839 1.87-1.87v-5.614h3.743V57.13H2.872zm54.258-4.677a2.81 2.81 0 01-2.806 2.806h-29v-20.58c0-1.032-.84-1.871-1.871-1.871H21.58v-5.614h1.87a1.873 1.873 0 001.872-1.87V8.483h3.914a2.803 2.803 0 002.634 1.872h14.968a2.803 2.803 0 002.634-1.871h4.85a2.81 2.81 0 012.806 2.806v41.162z" fill="#ED6928"/><path d="M36.484 15.155v-.551H27V24h9.484v-6.188L40 14.329 38.659 13l-2.175 2.155zm-1.897 6.966h-5.69v-5.638h5.69v.55l-1.897 1.88-1.226-1.215-1.34 1.329 2.567 2.543 1.896-1.879v2.43zM42 14h11v2H42v-2zm0 4h11v2H42v-2zm10 4h2v2h-2v-2zm-10 0h7v2h-7v-2zm-5.516 6.154v-.55H27V37h9.484v-6.188L40 27.329 38.659 26l-2.175 2.154zm-1.897 6.967h-5.69v-5.638h5.69v.55l-1.897 1.88-1.226-1.215-1.34 1.329 2.567 2.543 1.896-1.879v2.43zM42 27h11v2H42v-2zm0 4h11v2H42v-2zm10 4h2v2h-2v-2zm-10 0h7v2h-7v-2zm-3.341 4l-2.175 2.154v-.55H27V50h9.484v-6.188L40 40.329 38.659 39zm-4.072 9.12h-5.69v-5.637h5.69v.55l-1.897 1.88-1.226-1.215-1.34 1.329 2.567 2.543 1.896-1.879v2.43zM42 40h11v2H42v-2zm0 4h11v2H42v-2zm10 4h2v2h-2v-2zm-10 0h7v2h-7v-2z" fill="#ED6928"/></svg>