<svg width="60" height="60" fill="none" xmlns="http://www.w3.org/2000/svg"><rect width="60" height="60" rx="30" fill="#ED6928"/><path d="M35.625 19.875h4.5A1.125 1.125 0 0141.25 21v18a1.125 1.125 0 01-1.125 1.125h-20.25A1.125 1.125 0 0118.75 39V21a1.125 1.125 0 011.125-1.125h4.5v-2.25h2.25v2.25h6.75v-2.25h2.25v2.25zm3.375 9H21v9h18v-9zm-5.625-6.75h-6.75v2.25h-2.25v-2.25H21v4.5h18v-4.5h-3.375v2.25h-2.25v-2.25zm-10.125 9h2.25v2.25h-2.25v-2.25zm5.625 0h2.25v2.25h-2.25v-2.25zm5.625 0h2.25v2.25H34.5v-2.25z" fill="#fff"/></svg>