<svg width="60" height="60" fill="none" xmlns="http://www.w3.org/2000/svg"><path d="M54.323 6.613h-2.807V3.806A2.81 2.81 0 0048.71 1a2.81 2.81 0 00-2.807 2.806v2.807h-1.87V3.806A2.81 2.81 0 0041.225 1a2.81 2.81 0 00-2.807 2.806v2.807h-1.87V3.806A2.81 2.81 0 0033.741 1a2.81 2.81 0 00-2.806 2.806v2.807h-1.872V3.806A2.81 2.81 0 0026.258 1a2.81 2.81 0 00-2.806 2.806v2.807h-2.807a4.683 4.683 0 00-4.677 4.677v12.162H3.806A2.81 2.81 0 001 26.258v14.968a2.81 2.81 0 002.806 2.806h12.162v10.29A4.683 4.683 0 0020.645 59H57.13c1.031 0 1.87-.84 1.87-1.871V11.29a4.683 4.683 0 00-4.677-4.677zm-30.871 37.42h5.612v3.741h-5.612v-3.742zm7.483-.173a2.804 2.804 0 001.7-1.699h3.913v5.613h-5.613V43.86zm1.872-9.183h3.741v5.613h-3.742v-5.613zm3.741-7.483v5.613h-3.742v-5.614h3.742zm14.968 5.613h-5.613v-5.614h5.613v5.613zm-7.484 0H38.42v-5.614h5.613v5.613zm-5.613 1.87h5.613v5.613H38.42v-5.613zm7.484 0h5.613v5.613h-5.613v-5.613zm5.613-9.354h-5.613V19.71h5.613v5.613zm-7.484 0H38.42V19.71h5.613v5.613zm-7.484 0h-3.914a2.804 2.804 0 00-1.698-1.7V19.71h5.612v5.613zm-7.484-1.871h-5.612V19.71h5.612v3.742zm1.872 7.483H2.87v-1.87h28.065v1.87zm7.483 11.226h5.613v5.613H38.42v-5.613zm7.484 0h5.613v5.613h-5.612v-5.613zm3.742 7.484h6.161l-6.16 6.161v-6.16zm-1.87-45.839a.936.936 0 011.87 0V9.42a.936.936 0 01-1.87 0V3.806zm-7.485 0a.936.936 0 011.871 0V9.42a.936.936 0 01-1.87 0V3.806zm-7.483 0a.936.936 0 011.87 0V9.42a.936.936 0 01-1.87 0V3.806zm-7.484 0a.936.936 0 011.87 0V9.42a.936.936 0 01-1.87 0V3.806zm-4.678 4.678h2.807v.935a2.81 2.81 0 002.806 2.807 2.81 2.81 0 002.806-2.807v-.935h1.872v.935a2.81 2.81 0 002.806 2.807 2.81 2.81 0 002.806-2.807v-.935h1.871v.935a2.81 2.81 0 002.807 2.807 2.81 2.81 0 002.806-2.807v-.935h1.871v.935a2.81 2.81 0 002.807 2.807 2.81 2.81 0 002.806-2.807v-.935h2.807a2.81 2.81 0 012.806 2.806v2.807h-39.29V11.29a2.81 2.81 0 012.806-2.806zm-2.806 7.484h39.29v31.806h-3.742V17.84H21.581v5.613h-3.742v-7.484zM3.806 25.323H30c.516 0 .936.419.936.935v.936H2.87v-.936c0-.516.42-.935.935-.935zm-.935 15.903v-8.42h28.065v8.42c0 .516-.42.935-.936.935H3.806a.936.936 0 01-.935-.935zm14.968 13.097v-10.29h3.742v5.612h26.193v7.484H20.645a2.81 2.81 0 01-2.806-2.806zm33.129 2.806l6.161-6.161v6.161h-6.161z" fill="#ED6928"/><path d="M22 52h12v2H22v-2zm15 0h8v2h-8v-2zM26.3 35c-.694 0-1.321.301-1.8.78-.479-.48-1.106-.78-1.8-.78-1.489 0-2.7 1.346-2.7 3s1.211 3 2.7 3c.694 0 1.321-.301 1.8-.78.479.48 1.106.78 1.8.78 1.489 0 2.7-1.346 2.7-3s-1.211-3-2.7-3zm-3.6 4c-.497 0-.9-.448-.9-1s.403-1 .9-1 .9.448.9 1-.403 1-.9 1zm3.6 0c-.497 0-.9-.448-.9-1s.403-1 .9-1 .9.448.9 1-.403 1-.9 1zM5 38h7v2H5v-2zm0-3h4v2H5v-2z" fill="#ED6928"/></svg>